<svg width="219" height="219" viewBox="0 0 219 219" fill="none" xmlns="http://www.w3.org/2000/svg">
<mask id="mask0" mask-type="alpha" maskUnits="userSpaceOnUse" x="0" y="0" width="219" height="219">
<circle cx="109.5" cy="109.5" r="109.5" fill="#C4C4C4"/>
</mask>
<g mask="url(#mask0)">
<circle cx="109.5" cy="109.5" r="109.5" fill="#6872D1"/>
<g clip-path="url(#clip0)">
<g opacity="0.7">
<path opacity="0.7" d="M147.12 111.673C147.141 105.44 145.653 99.2951 142.784 93.7659C141.422 91.1693 140.18 89.5551 139.213 88.5652C138.848 88.1774 138.372 87.9135 137.851 87.8103C137.329 87.7071 136.789 87.7698 136.305 87.9896C135.918 88.1265 135.568 88.3525 135.284 88.6496C133.991 89.9926 132.823 91.7679 131.803 93.6584C128.784 99.3168 127.218 105.64 127.244 112.057V115.909H124.78V71.1416C124.78 61.7584 122.686 52.5005 118.584 44.2811C116.64 40.3902 114.867 37.9728 113.503 36.4865C113.172 36.1087 112.765 35.8059 112.308 35.5985C111.852 35.3912 111.356 35.2839 110.855 35.2839C110.354 35.2839 109.858 35.3912 109.402 35.5985C108.945 35.8059 108.538 36.1087 108.207 36.4865C106.36 38.4997 104.695 41.1602 103.238 43.9895C98.9246 52.3777 96.7334 61.8965 96.7334 71.5586V115.909H94.6034V111.872C94.6298 105.455 93.0633 99.1326 90.045 93.4742C89.0247 91.5863 87.8564 89.811 86.5631 88.4654C86.1909 88.0722 85.7037 87.8078 85.1718 87.7103C84.64 87.6128 84.091 87.6873 83.6041 87.9231L83.6934 87.9717C83.3811 88.1101 83.0986 88.3082 82.8618 88.5549C81.9053 89.5449 80.663 91.1591 79.2906 93.7556C76.4217 99.2848 74.9337 105.43 74.9542 111.663V178.594H82.5557L81.7267 184.096V200.548H87.9406V184.096L87.1116 178.594H94.6034V117.641H96.7334V178.32H102.804L101.932 184.094V200.548H108.148V184.096L107.276 178.323H115.457L114.584 184.096V200.548H120.801V184.096L119.928 178.323H124.775V117.641H127.239V178.686H129.236V178.594H135.841L135.012 184.096V200.548H141.228V184.096L140.399 178.594H147.12V111.673Z" fill="url(#paint0_linear)"/>
</g>
<path d="M89.1778 180.889H83.2929L84.3439 173.723H88.1268L89.1778 180.889Z" fill="#535461"/>
<g opacity="0.1">
<path opacity="0.1" d="M84.0505 176.568H88.4202L88.1268 174.565H84.3439L84.0505 176.568Z" fill="black"/>
</g>
<path d="M139.623 180.889H133.739L134.79 173.723H138.573L139.623 180.889Z" fill="#535461"/>
<g opacity="0.1">
<path opacity="0.1" d="M134.496 176.568H138.866L138.573 174.565H134.79L134.496 176.568Z" fill="black"/>
</g>
<path d="M108.307 180.889H102.419L103.47 173.723H107.256L108.307 180.889Z" fill="#535461"/>
<g opacity="0.1">
<path opacity="0.1" d="M103.177 176.568H107.549L107.256 174.565H103.47L103.177 176.568Z" fill="black"/>
</g>
<path d="M120.285 180.889H114.401L115.452 173.723H119.234L120.285 180.889Z" fill="#535461"/>
<g opacity="0.1">
<path opacity="0.1" d="M115.158 176.568H119.53L119.234 174.565H115.452L115.158 176.568Z" fill="black"/>
</g>
<path d="M131.216 114.489H89.1778V116.175H131.216V114.489Z" fill="#535461"/>
<path d="M137.715 87.8515C137.493 87.6056 137.222 87.409 136.92 87.2745C136.617 87.14 136.29 87.0705 135.959 87.0705C135.628 87.0705 135.301 87.14 134.999 87.2745C134.696 87.409 134.425 87.6056 134.203 87.8515C132.978 89.1587 131.874 90.888 130.907 92.7273C128.046 98.2586 126.566 104.403 126.594 110.634V175.532H145.197V110.366C145.22 104.306 143.812 98.3259 141.088 92.9166C139.797 90.3892 138.621 88.8159 137.715 87.8515Z" fill="#E0E0E0"/>
<path d="M84.3694 87.8515C84.5915 87.6056 84.8626 87.409 85.1651 87.2745C85.4675 87.14 85.7948 87.0705 86.1257 87.0705C86.4565 87.0705 86.7838 87.14 87.0862 87.2745C87.3887 87.409 87.6598 87.6056 87.8819 87.8515C89.1063 89.1587 90.2109 90.888 91.1776 92.7273C94.0385 98.2586 95.5186 104.403 95.4911 110.634V175.532H76.8826V110.366C76.8592 104.306 78.2675 98.3259 80.9921 92.9166C82.2802 90.3892 83.4562 88.8159 84.3694 87.8515Z" fill="#E0E0E0"/>
<path d="M76.9872 111.75L81.4002 111.77V117.229H76.9872V111.75Z" fill="#535461"/>
<path d="M91.0705 111.75L95.4835 111.77V117.229H91.0705V111.75Z" fill="#535461"/>
<path d="M126.591 111.75L131.007 111.77V117.229H126.591V111.75Z" fill="#535461"/>
<path d="M140.674 111.75L145.09 111.77V117.229H140.674V111.75Z" fill="#535461"/>
<g opacity="0.1">
<path opacity="0.1" d="M91.17 92.6429C90.2058 90.8036 89.0987 89.0743 87.8743 87.7671C87.5283 87.3838 87.0667 87.1246 86.5601 87.029C86.0535 86.9334 85.5296 87.0066 85.0683 87.2375C85.3341 87.3705 85.5742 87.5498 85.7775 87.7671C87.0019 89.0743 88.1064 90.8036 89.0732 92.6429C91.934 98.1742 93.4142 104.319 93.3867 110.55V175.442H95.4886V110.558C95.5158 104.324 94.0338 98.176 91.17 92.6429Z" fill="black"/>
</g>
<g opacity="0.1">
<path opacity="0.1" d="M132.581 92.822C133.545 90.9827 134.652 89.2533 135.876 87.9461C136.106 87.6987 136.382 87.5003 136.69 87.3629C136.235 87.1632 135.729 87.112 135.244 87.2167C134.759 87.3214 134.319 87.5766 133.986 87.9461C132.762 89.2533 131.657 90.9827 130.69 92.822C127.83 98.3532 126.349 104.498 126.377 110.729V175.621H128.27V110.739C128.24 104.505 129.719 98.3565 132.581 92.822Z" fill="black"/>
</g>
<path d="M89.1778 180.889H83.2929V196.908H89.1778V180.889Z" fill="url(#paint1_linear)"/>
<path d="M139.816 180.6H133.931V196.619H139.816V180.6Z" fill="url(#paint2_linear)"/>
<path d="M108.002 180.6H102.118V196.619H108.002V180.6Z" fill="url(#paint3_linear)"/>
<path d="M120.285 180.889H114.401V196.908H120.285V180.889Z" fill="url(#paint4_linear)"/>
<path d="M113.373 36.97C113.065 36.6036 112.682 36.309 112.249 36.1069C111.816 35.9048 111.344 35.8 110.866 35.8C110.389 35.8 109.917 35.9048 109.484 36.1069C109.051 36.309 108.668 36.6036 108.36 36.97C106.613 38.9296 105.044 41.521 103.656 44.2786C99.575 52.4493 97.4986 61.7226 97.4986 71.1263V175.266H124.05V70.7068C124.05 61.5691 122.068 52.544 118.184 44.56C116.344 40.7714 114.666 38.4179 113.373 36.97Z" fill="#EEEEEE"/>
<path d="M114.712 48.5379H106.47C104.92 48.5379 103.664 49.7978 103.664 51.3519V52.0912C103.664 53.6453 104.92 54.9051 106.47 54.9051H114.712C116.261 54.9051 117.518 53.6453 117.518 52.0912V51.3519C117.518 49.7978 116.261 48.5379 114.712 48.5379Z" fill="#6C63FF"/>
<g opacity="0.7">
<path opacity="0.7" d="M208.856 198.266C207.507 189.598 203.144 181.79 196.636 176.399C190.128 171.007 181.953 168.428 173.74 169.175C165.527 169.922 157.88 173.941 152.323 180.43C146.766 186.919 143.707 195.402 143.756 204.188C143.756 204.36 143.756 204.529 143.756 204.701C142.543 204.897 141.344 205.171 140.163 205.522C138.65 199.101 135.302 193.34 130.583 189.038C125.863 184.735 120.005 182.103 113.82 181.506C107.635 180.909 101.428 182.377 96.0605 185.706C90.6926 189.035 86.4286 194.061 83.859 200.088C81.2104 198.999 78.4286 198.322 75.599 198.076C75.1479 195.345 74.391 192.682 73.3445 190.143C72.8534 182.132 69.5469 174.613 64.0848 169.086C58.6226 163.558 51.4064 160.43 43.8757 160.323C36.3451 160.217 29.0537 163.141 23.4562 168.512C17.8588 173.884 14.3668 181.307 13.6769 189.301C12.1266 192.801 11.1364 196.552 10.7472 200.4C3.89346 203.439 -1.65764 209.083 -4.83017 216.237C-8.0027 223.391 -8.57072 231.546 -6.42415 239.121H233.47C234.721 234.702 235.058 230.048 234.458 225.477C233.858 220.907 232.337 216.529 229.997 212.646C227.657 208.763 224.556 205.466 220.906 202.984C217.257 200.501 213.146 198.892 208.856 198.266Z" fill="url(#paint5_linear)"/>
</g>
<path d="M47.1667 223.476C63.1396 223.476 76.0882 209.598 76.0882 192.478C76.0882 175.358 63.1396 161.479 47.1667 161.479C31.1937 161.479 18.2451 175.358 18.2451 192.478C18.2451 209.598 31.1937 223.476 47.1667 223.476Z" fill="url(#paint6_linear)"/>
<path d="M45.7206 237.962C63.4506 237.962 77.8235 222.916 77.8235 204.356C77.8235 185.796 63.4506 170.75 45.7206 170.75C27.9906 170.75 13.6176 185.796 13.6176 204.356C13.6176 222.916 27.9906 237.962 45.7206 237.962Z" fill="url(#paint7_linear)"/>
<path d="M173.843 237.962C191.094 237.962 205.078 222.916 205.078 204.356C205.078 185.796 191.094 170.75 173.843 170.75C156.592 170.75 142.608 185.796 142.608 204.356C142.608 222.916 156.592 237.962 173.843 237.962Z" fill="url(#paint8_linear)"/>
<path d="M172.108 237.962C188.081 237.962 201.029 224.083 201.029 206.963C201.029 189.843 188.081 175.965 172.108 175.965C156.135 175.965 143.186 189.843 143.186 206.963C143.186 224.083 156.135 237.962 172.108 237.962Z" fill="url(#paint9_linear)"/>
<path d="M140.873 212.565C140.877 217.522 139.785 222.41 137.686 226.826C135.586 231.241 132.54 235.058 128.798 237.962H94.5498C90.4962 234.816 87.2629 230.605 85.1595 225.733C83.0561 220.86 82.1532 215.489 82.5372 210.135C82.9212 204.78 84.5794 199.621 87.3527 195.152C90.1261 190.683 93.9217 187.053 98.3761 184.611C102.831 182.168 107.794 180.995 112.792 181.203C117.79 181.411 122.654 182.994 126.919 185.8C131.184 188.605 134.706 192.54 137.149 197.226C139.591 201.913 140.872 207.194 140.869 212.565H140.873Z" fill="url(#paint10_linear)"/>
<path d="M176.157 235.184C176.157 236.107 176.118 237.02 176.042 237.924C176.045 237.936 176.045 237.949 176.042 237.962H118.433C118.353 237.047 118.314 236.12 118.314 235.188C118.309 227.809 120.788 220.674 125.3 215.079C129.812 209.484 136.058 205.802 142.901 204.703C144.331 204.474 145.775 204.358 147.221 204.356C147.96 204.356 148.695 204.386 149.421 204.441C154.605 204.863 159.586 206.767 163.841 209.951C168.096 213.135 171.468 217.483 173.604 222.537C173.723 222.816 173.838 223.1 173.945 223.384C175.405 227.123 176.157 231.134 176.157 235.184Z" fill="url(#paint11_linear)"/>
<path d="M229.951 229.104C229.954 232.105 229.541 235.09 228.724 237.962H173.909C172.584 233.265 172.331 228.297 173.174 223.475C173.221 223.211 173.268 222.942 173.323 222.682C174.703 215.853 178.235 209.734 183.331 205.345C188.427 200.956 194.778 198.562 201.328 198.562C202.229 198.562 203.114 198.604 203.99 198.696C204.384 198.73 204.777 198.78 205.17 198.834C212.034 199.831 218.327 203.446 222.883 209.012C227.44 214.577 229.95 221.715 229.951 229.104Z" fill="url(#paint12_linear)"/>
<path d="M54.0081 237.962C54.1044 237.643 54.1886 237.325 54.2728 237.002C55.6025 231.804 55.5952 226.332 54.2516 221.138C52.9081 215.944 50.276 211.213 46.6217 207.424C42.9673 203.635 38.4202 200.921 33.4404 199.558C28.4606 198.195 23.2248 198.231 18.2625 199.662C17.1006 199.995 15.9605 200.407 14.8496 200.894C8.16027 203.803 2.74256 209.204 -0.353293 216.05C-3.44914 222.897 -4.00259 230.701 -1.90634 237.949H54.0081V237.962Z" fill="url(#paint13_linear)"/>
<g opacity="0.7">
<path opacity="0.7" d="M179.22 180.743C181.103 180.743 182.628 179.213 182.628 177.325C182.628 175.438 181.103 173.907 179.22 173.907C177.338 173.907 175.812 175.438 175.812 177.325C175.812 179.213 177.338 180.743 179.22 180.743Z" fill="url(#paint14_linear)"/>
</g>
<path d="M179.22 180.492C180.964 180.492 182.378 179.074 182.378 177.325C182.378 175.576 180.964 174.158 179.22 174.158C177.476 174.158 176.062 175.576 176.062 177.325C176.062 179.074 177.476 180.492 179.22 180.492Z" fill="url(#paint15_linear)"/>
<g opacity="0.7">
<path opacity="0.7" d="M35.796 193.157C38.0515 193.157 39.8799 191.324 39.8799 189.062C39.8799 186.8 38.0515 184.966 35.796 184.966C33.5405 184.966 31.7121 186.8 31.7121 189.062C31.7121 191.324 33.5405 193.157 35.796 193.157Z" fill="url(#paint16_linear)"/>
</g>
<path d="M35.796 192.973C37.9501 192.973 39.6963 191.222 39.6963 189.062C39.6963 186.902 37.9501 185.15 35.796 185.15C33.642 185.15 31.8958 186.902 31.8958 189.062C31.8958 191.222 33.642 192.973 35.796 192.973Z" fill="url(#paint17_linear)"/>
<g opacity="0.4">
<path opacity="0.4" d="M189.651 27.4691C188.746 26.2695 187.611 25.2625 186.314 24.5068C184.826 23.6492 183.162 23.146 181.449 23.0359C179.736 22.9258 178.021 23.2118 176.436 23.8718C174.851 24.5318 173.438 25.5482 172.307 26.8425C171.176 28.1368 170.356 29.6745 169.912 31.3368C169.467 32.9992 169.409 34.7418 169.742 36.4302C170.076 38.1185 170.791 39.7076 171.834 41.0746C172.877 42.4416 174.219 43.5501 175.756 44.3146C177.294 45.079 178.986 45.479 180.702 45.4836C180.94 45.4836 181.177 45.4836 181.412 45.4605C183.431 45.3328 185.378 44.659 187.046 43.5106C188.714 42.3622 190.04 40.7822 190.885 38.9384C191.729 37.0946 192.06 35.0558 191.842 33.0387C191.624 31.0215 190.865 29.1013 189.646 27.4819L189.651 27.4691Z" fill="url(#paint18_linear)"/>
</g>
<path opacity="0.2" d="M191.296 34.2354C191.296 36.9353 190.271 39.534 188.429 41.5028C186.586 43.4716 184.065 44.6627 181.378 44.8338C181.156 44.8491 180.932 44.8568 180.708 44.8568C179.084 44.8558 177.482 44.4804 176.026 43.7596C174.57 43.0387 173.299 41.9918 172.311 40.6997C171.323 39.4076 170.645 37.9049 170.328 36.3078C170.012 34.7108 170.066 33.0621 170.486 31.4893C170.906 29.9165 171.682 28.4617 172.752 27.2374C173.822 26.013 175.159 25.052 176.659 24.4285C178.159 23.8049 179.782 23.5357 181.402 23.6415C183.022 23.7474 184.597 24.2255 186.003 25.0388C187.23 25.7533 188.302 26.7055 189.159 27.84C190.549 29.6803 191.3 31.9266 191.296 34.2354Z" fill="#6C63FF"/>
<path opacity="0.05" d="M178.101 27.4998C177.554 27.7364 177.026 28.0152 176.522 28.3337C176.185 28.5209 175.896 28.7836 175.677 29.1012C175.57 29.2605 175.512 29.4473 175.508 29.6392C175.504 29.8311 175.556 30.0201 175.657 30.1833C175.912 30.5363 176.422 30.5926 176.848 30.6156C177.24 30.699 177.646 30.6766 178.026 30.5508C178.406 30.4249 178.746 30.2001 179.011 29.8993L179.922 29.0705C180.238 28.784 180.585 28.3875 180.447 27.9833C180.343 27.6737 179.996 27.5228 179.682 27.4716C178.899 27.3172 178.087 27.4603 177.404 27.8733" fill="#F55F44"/>
<path opacity="0.05" d="M174.297 38.9858C174.604 38.9858 174.853 38.7362 174.853 38.4282C174.853 38.1202 174.604 37.8705 174.297 37.8705C173.99 37.8705 173.741 38.1202 173.741 38.4282C173.741 38.7362 173.99 38.9858 174.297 38.9858Z" fill="#F55F44"/>
<path opacity="0.05" d="M185.631 36.9368C186.759 36.9368 187.674 36.0194 187.674 34.8877C187.674 33.756 186.759 32.8386 185.631 32.8386C184.502 32.8386 183.587 33.756 183.587 34.8877C183.587 36.0194 184.502 36.9368 185.631 36.9368Z" fill="#F55F44"/>
<path opacity="0.05" d="M189.161 27.8375C189.153 28.3729 188.992 28.8947 188.697 29.3409C188.401 29.7871 187.985 30.1389 187.496 30.3545C187.007 30.5701 186.467 30.6404 185.94 30.5571C185.412 30.4738 184.92 30.2404 184.521 29.8846C184.122 29.5287 183.833 29.0655 183.689 28.5499C183.545 28.0343 183.551 27.488 183.708 26.9761C183.864 26.4641 184.164 26.0079 184.571 25.6618C184.978 25.3156 185.476 25.0941 186.006 25.0235C187.234 25.7417 188.306 26.6984 189.161 27.8375Z" fill="#F55F44"/>
<path opacity="0.05" d="M189.365 40.3519C188.454 41.6517 187.263 42.7295 185.881 43.5053C184.498 44.2811 182.96 44.7351 181.378 44.8337C181.366 44.6879 181.358 44.5396 181.358 44.3912C181.358 43.4591 181.617 42.5454 182.105 41.752C182.593 40.9586 183.29 40.3167 184.121 39.8978C184.951 39.479 185.881 39.2996 186.807 39.3798C187.733 39.46 188.619 39.7965 189.365 40.3519Z" fill="#F55F44"/>
<path opacity="0.25" d="M182.378 112.489C183.097 112.489 183.679 111.905 183.679 111.184C183.679 110.464 183.097 109.88 182.378 109.88C181.66 109.88 181.077 110.464 181.077 111.184C181.077 111.905 181.66 112.489 182.378 112.489Z" fill="#535461"/>
<path opacity="0.25" d="M8.92021 146.768C9.6387 146.768 10.2211 146.184 10.2211 145.463C10.2211 144.743 9.6387 144.159 8.92021 144.159C8.20173 144.159 7.61928 144.743 7.61928 145.463C7.61928 146.184 8.20173 146.768 8.92021 146.768Z" fill="#535461"/>
<path opacity="0.25" d="M71.6508 92.3666C72.3693 92.3666 72.9518 91.7825 72.9518 91.0619C72.9518 90.3414 72.3693 89.7573 71.6508 89.7573C70.9323 89.7573 70.3499 90.3414 70.3499 91.0619C70.3499 91.7825 70.9323 92.3666 71.6508 92.3666Z" fill="#535461"/>
<path opacity="0.25" d="M67.3782 62.3698C68.0966 62.3698 68.6791 61.7857 68.6791 61.0651C68.6791 60.3446 68.0966 59.7605 67.3782 59.7605C66.6597 59.7605 66.0772 60.3446 66.0772 61.0651C66.0772 61.7857 66.6597 62.3698 67.3782 62.3698Z" fill="#535461"/>
<path opacity="0.25" d="M30.5923 121.803C31.3108 121.803 31.8932 121.219 31.8932 120.499C31.8932 119.778 31.3108 119.194 30.5923 119.194C29.8738 119.194 29.2913 119.778 29.2913 120.499C29.2913 121.219 29.8738 121.803 30.5923 121.803Z" fill="#535461"/>
<path opacity="0.25" d="M214.614 122.031H213.455V120.872H212.983V122.031H211.825V122.507H212.983V123.665H213.455V122.507H214.614V122.031Z" fill="#535461"/>
<path opacity="0.25" d="M151.447 59.4305H150.289V58.2691H149.817V59.4305H148.659V59.9038H149.817V61.0652H150.289V59.9038H151.447V59.4305Z" fill="#535461"/>
<path opacity="0.25" d="M201.979 115.51H200.821V114.351H200.349V115.51H199.194V115.986H200.349V117.145H200.821V115.986H201.979V115.51Z" fill="#535461"/>
<path opacity="0.25" d="M159.62 154.077H158.464V152.918H157.992V154.077H156.834V154.553H157.992V155.711H158.464V154.553H159.62V154.077Z" fill="#535461"/>
<path opacity="0.25" d="M41.0916 74.521H39.9335V73.3622H39.4616V74.521H38.3035V74.9943H39.4616V76.1557H39.9335V74.9943H41.0916V74.521Z" fill="#535461"/>
<path opacity="0.25" d="M0.788085 89.614H-0.370004V88.4552H-0.841912V89.614H-2V90.0873H-0.841912V91.2487H-0.370004V90.0873H0.788085V89.614Z" fill="#535461"/>
<path opacity="0.25" d="M57.0676 137.124H55.9095V135.962H55.4376V137.124H54.2821V137.597H55.4376V138.759H55.9095V137.597H57.0676V137.124Z" fill="#535461"/>
<g opacity="0.4">
<path opacity="0.4" d="M66.6078 112.105C66.1768 111.533 65.6366 111.053 65.0186 110.693C64.3099 110.279 63.5157 110.035 62.6976 109.979C61.8794 109.923 61.0594 110.057 60.3012 110.37C59.5431 110.683 58.867 111.168 58.3257 111.785C57.7844 112.403 57.3923 113.138 57.1798 113.932C56.9674 114.726 56.9404 115.559 57.1008 116.365C57.2613 117.172 57.6049 117.93 58.105 118.582C58.6051 119.234 59.2483 119.761 59.9846 120.123C60.7208 120.485 61.5304 120.672 62.3504 120.67C62.4627 120.67 62.5774 120.67 62.6871 120.67C63.6484 120.608 64.575 120.287 65.3688 119.74C66.1627 119.193 66.794 118.44 67.196 117.562C67.5979 116.685 67.7555 115.714 67.652 114.754C67.5484 113.793 67.1876 112.879 66.6078 112.108V112.105Z" fill="url(#paint19_linear)"/>
</g>
<path opacity="0.2" d="M67.3909 115.328C67.3909 116.614 66.9024 117.852 66.0248 118.79C65.1472 119.727 63.9464 120.294 62.6667 120.376C62.5621 120.376 62.455 120.376 62.3479 120.376C61.5747 120.375 60.8121 120.196 60.119 119.852C59.4258 119.509 58.8207 119.01 58.3504 118.395C57.8801 117.779 57.5571 117.064 57.4065 116.303C57.2559 115.543 57.2817 114.758 57.4819 114.009C57.682 113.26 58.0512 112.567 58.5609 111.984C59.0705 111.401 59.707 110.944 60.4212 110.647C61.1354 110.35 61.9081 110.221 62.6796 110.271C63.4511 110.322 64.2008 110.549 64.8707 110.936C65.4545 111.276 65.9652 111.729 66.3731 112.269C67.0379 113.149 67.3956 114.224 67.3909 115.328Z" fill="#6C63FF"/>
<path opacity="0.1" d="M61.1056 112.121C60.8405 112.232 60.5847 112.365 60.3403 112.517C60.1802 112.605 60.0423 112.728 59.9373 112.878C59.8887 112.954 59.8629 113.043 59.8629 113.134C59.8629 113.224 59.8887 113.313 59.9373 113.389C60.0115 113.462 60.1004 113.518 60.1982 113.554C60.2959 113.589 60.4001 113.603 60.5036 113.594C60.6885 113.632 60.8801 113.621 61.0592 113.561C61.2382 113.501 61.3985 113.395 61.5239 113.254L61.9576 112.86C62.1081 112.722 62.2739 112.535 62.2127 112.348C62.1785 112.278 62.1267 112.217 62.0624 112.172C61.998 112.127 61.9233 112.1 61.8453 112.092C61.4727 112.019 61.0864 112.088 60.7612 112.284" fill="#F55F44"/>
<path opacity="0.1" d="M59.2945 117.59C59.441 117.59 59.5598 117.471 59.5598 117.324C59.5598 117.177 59.441 117.058 59.2945 117.058C59.148 117.058 59.0292 117.177 59.0292 117.324C59.0292 117.471 59.148 117.59 59.2945 117.59Z" fill="#F55F44"/>
<path opacity="0.1" d="M64.6921 116.615C65.2303 116.615 65.6665 116.178 65.6665 115.638C65.6665 115.098 65.2303 114.661 64.6921 114.661C64.1539 114.661 63.7177 115.098 63.7177 115.638C63.7177 116.178 64.1539 116.615 64.6921 116.615Z" fill="#F55F44"/>
<path opacity="0.1" d="M66.3731 112.292C66.3699 112.547 66.2937 112.795 66.1537 113.008C66.0137 113.221 65.8158 113.388 65.5834 113.492C65.351 113.595 65.0939 113.629 64.8429 113.589C64.5918 113.55 64.3572 113.44 64.167 113.271C63.9768 113.102 63.8391 112.881 63.7701 112.636C63.7012 112.391 63.7039 112.131 63.778 111.887C63.8521 111.643 63.9945 111.426 64.1882 111.261C64.3819 111.096 64.6188 110.99 64.8707 110.957C65.4547 111.298 65.9654 111.751 66.3731 112.292Z" fill="#F55F44"/>
<path opacity="0.1" d="M66.4726 118.242C66.039 118.862 65.472 119.375 64.8136 119.745C64.1553 120.115 63.4224 120.331 62.6693 120.378C62.6693 120.309 62.6693 120.238 62.6693 120.166C62.6678 119.72 62.7905 119.282 63.0235 118.902C63.2566 118.522 63.5906 118.215 63.9882 118.015C64.3858 117.816 64.8311 117.731 65.2741 117.771C65.717 117.811 66.14 117.974 66.4955 118.242H66.4726Z" fill="#F55F44"/>
<g opacity="0.1">
<path opacity="0.1" d="M123.908 74.6873H97.6339V75.7105H123.908V74.6873Z" fill="black"/>
</g>
</g>
</g>
<defs>
<linearGradient id="paint0_linear" x1="111.039" y1="200.548" x2="111.039" y2="35.2918" gradientUnits="userSpaceOnUse">
<stop stop-color="#808080" stop-opacity="0.25"/>
<stop offset="0.54" stop-color="#808080" stop-opacity="0.12"/>
<stop offset="1" stop-color="#808080" stop-opacity="0.1"/>
</linearGradient>
<linearGradient id="paint1_linear" x1="86.2341" y1="180.889" x2="86.2341" y2="196.91" gradientUnits="userSpaceOnUse">
<stop stop-color="#E0E0E0"/>
<stop offset="0.31" stop-color="#FCCC63"/>
<stop offset="0.77" stop-color="#F55F44"/>
</linearGradient>
<linearGradient id="paint2_linear" x1="136.873" y1="180.6" x2="136.873" y2="196.622" gradientUnits="userSpaceOnUse">
<stop stop-color="#E0E0E0"/>
<stop offset="0.31" stop-color="#FCCC63"/>
<stop offset="0.77" stop-color="#F55F44"/>
</linearGradient>
<linearGradient id="paint3_linear" x1="105.059" y1="180.6" x2="105.059" y2="196.622" gradientUnits="userSpaceOnUse">
<stop stop-color="#E0E0E0"/>
<stop offset="0.31" stop-color="#FCCC63"/>
<stop offset="0.77" stop-color="#F55F44"/>
</linearGradient>
<linearGradient id="paint4_linear" x1="2867.66" y1="10067.9" x2="2867.66" y2="11071.1" gradientUnits="userSpaceOnUse">
<stop stop-color="#F88850"/>
<stop offset="0.31" stop-color="#FCCC63"/>
<stop offset="0.77" stop-color="#F55F44"/>
</linearGradient>
<linearGradient id="paint5_linear" x1="140747" y1="65962.3" x2="140747" y2="51206.2" gradientUnits="userSpaceOnUse">
<stop stop-color="#808080" stop-opacity="0.25"/>
<stop offset="0.54" stop-color="#808080" stop-opacity="0.12"/>
<stop offset="1" stop-color="#808080" stop-opacity="0.1"/>
</linearGradient>
<linearGradient id="paint6_linear" x1="47.1667" y1="161.479" x2="47.1667" y2="223.476" gradientUnits="userSpaceOnUse">
<stop stop-color="#F2F2F2"/>
<stop offset="0.31" stop-color="#E6E6E6"/>
<stop offset="0.77" stop-color="#CCCCCC"/>
</linearGradient>
<linearGradient id="paint7_linear" x1="17500.1" y1="40962.2" x2="17500.1" y2="51682.5" gradientUnits="userSpaceOnUse">
<stop stop-color="#F2F2F2"/>
<stop offset="0.31" stop-color="#E6E6E6"/>
<stop offset="0.77" stop-color="#CCCCCC"/>
</linearGradient>
<linearGradient id="paint8_linear" x1="37403.2" y1="40962.2" x2="37403.2" y2="51682.5" gradientUnits="userSpaceOnUse">
<stop stop-color="#F2F2F2"/>
<stop offset="0.31" stop-color="#E6E6E6"/>
<stop offset="0.77" stop-color="#CCCCCC"/>
</linearGradient>
<linearGradient id="paint9_linear" x1="34411.8" y1="38660.6" x2="34411.8" y2="47691.1" gradientUnits="userSpaceOnUse">
<stop stop-color="#F2F2F2"/>
<stop offset="0.31" stop-color="#E6E6E6"/>
<stop offset="0.77" stop-color="#CCCCCC"/>
</linearGradient>
<linearGradient id="paint10_linear" x1="33658.5" y1="39902.7" x2="33658.5" y2="47388.3" gradientUnits="userSpaceOnUse">
<stop stop-color="#F2F2F2"/>
<stop offset="0.31" stop-color="#E6E6E6"/>
<stop offset="0.77" stop-color="#CCCCCC"/>
</linearGradient>
<linearGradient id="paint11_linear" x1="38585.7" y1="25475.3" x2="38585.7" y2="28143.3" gradientUnits="userSpaceOnUse">
<stop stop-color="#F2F2F2"/>
<stop offset="0.31" stop-color="#E6E6E6"/>
<stop offset="0.77" stop-color="#CCCCCC"/>
</linearGradient>
<linearGradient id="paint12_linear" x1="46138.5" y1="29252.5" x2="46138.5" y2="32954.5" gradientUnits="userSpaceOnUse">
<stop stop-color="#F2F2F2"/>
<stop offset="0.31" stop-color="#E6E6E6"/>
<stop offset="0.77" stop-color="#CCCCCC"/>
</linearGradient>
<linearGradient id="paint13_linear" x1="20935.7" y1="29252.5" x2="20935.7" y2="32954.5" gradientUnits="userSpaceOnUse">
<stop stop-color="#F2F2F2"/>
<stop offset="0.31" stop-color="#E6E6E6"/>
<stop offset="0.77" stop-color="#CCCCCC"/>
</linearGradient>
<linearGradient id="paint14_linear" x1="5018.01" y1="4388.78" x2="5018.01" y2="4206.14" gradientUnits="userSpaceOnUse">
<stop stop-color="#808080" stop-opacity="0.25"/>
<stop offset="0.54" stop-color="#808080" stop-opacity="0.12"/>
<stop offset="1" stop-color="#808080" stop-opacity="0.1"/>
</linearGradient>
<linearGradient id="paint15_linear" x1="4663.08" y1="3916.84" x2="4663.08" y2="4073.67" gradientUnits="userSpaceOnUse">
<stop stop-color="#F2F2F2"/>
<stop offset="0.31" stop-color="#E6E6E6"/>
<stop offset="0.77" stop-color="#CCCCCC"/>
</linearGradient>
<linearGradient id="paint16_linear" x1="1241.94" y1="5633.4" x2="1241.94" y2="5371.12" gradientUnits="userSpaceOnUse">
<stop stop-color="#808080" stop-opacity="0.25"/>
<stop offset="0.54" stop-color="#808080" stop-opacity="0.12"/>
<stop offset="1" stop-color="#808080" stop-opacity="0.1"/>
</linearGradient>
<linearGradient id="paint17_linear" x1="1187.7" y1="5143.71" x2="1187.7" y2="5383.01" gradientUnits="userSpaceOnUse">
<stop stop-color="#F2F2F2"/>
<stop offset="0.31" stop-color="#E6E6E6"/>
<stop offset="0.77" stop-color="#CCCCCC"/>
</linearGradient>
<linearGradient id="paint18_linear" x1="19273.2" y1="3456.31" x2="19273.2" y2="1482.48" gradientUnits="userSpaceOnUse">
<stop stop-color="#808080" stop-opacity="0.25"/>
<stop offset="0.54" stop-color="#808080" stop-opacity="0.12"/>
<stop offset="1" stop-color="#808080" stop-opacity="0.1"/>
</linearGradient>
<linearGradient id="paint19_linear" x1="4220.7" y1="4892.09" x2="4220.7" y2="4444.26" gradientUnits="userSpaceOnUse">
<stop stop-color="#808080" stop-opacity="0.25"/>
<stop offset="0.54" stop-color="#808080" stop-opacity="0.12"/>
<stop offset="1" stop-color="#808080" stop-opacity="0.1"/>
</linearGradient>
<clipPath id="clip0">
<rect x="-2" y="23" width="236" height="197" fill="white"/>
</clipPath>
</defs>
</svg>
